<svg xmlns="http://www.w3.org/2000/svg" xmlns:xlink="http://www.w3.org/1999/xlink" width="38.101" height="38.101" viewBox="0 0 38.101 38.101">
  <defs>
    <filter id="times-solid" x="0" y="0" width="38.101" height="38.101" filterUnits="userSpaceOnUse">
      <feOffset dx="3" dy="3" input="SourceAlpha"/>
      <feGaussianBlur stdDeviation="1.5" result="blur"/>
      <feFlood flood-opacity="0.439"/>
      <feComposite operator="in" in2="blur"/>
      <feComposite in="SourceGraphic"/>
    </filter>
  </defs>
  <g transform="matrix(1, 0, 0, 1, 0, 0)" filter="url(#times-solid)">
    <path id="times-solid-2" data-name="times-solid" d="M20.066,94.55l8.273-8.273a2.6,2.6,0,0,0,0-3.677L26.5,80.761a2.6,2.6,0,0,0-3.677,0L14.55,89.035,6.277,80.761a2.6,2.6,0,0,0-3.677,0L.761,82.6a2.6,2.6,0,0,0,0,3.677L9.035,94.55.761,102.824a2.6,2.6,0,0,0,0,3.677L2.6,108.34a2.6,2.6,0,0,0,3.677,0l8.273-8.273,8.273,8.273a2.6,2.6,0,0,0,3.677,0L28.34,106.5a2.6,2.6,0,0,0,0-3.677Z" transform="translate(1.5 -78.5)" fill="#fff"/>
  </g>
</svg>
