<svg xmlns="http://www.w3.org/2000/svg" xmlns:xlink="http://www.w3.org/1999/xlink" width="167" height="167" viewBox="0 0 167 167">
  <defs>
    <filter id="Polygon_1" x="0" y="0" width="167" height="167" filterUnits="userSpaceOnUse">
      <feOffset dy="3" input="SourceAlpha"/>
      <feGaussianBlur stdDeviation="3" result="blur"/>
      <feFlood flood-opacity="0.161"/>
      <feComposite operator="in" in2="blur"/>
      <feComposite in="SourceGraphic"/>
    </filter>
  </defs>
  <g id="Stop_Button_Active_2.0" data-name="Stop Button Active 2.0" transform="translate(9 6)">
    <g transform="matrix(1, 0, 0, 1, -9, -6)" filter="url(#Polygon_1)">
      <g id="Polygon_1-2" data-name="Polygon 1" transform="translate(9 6)" fill="#fff">
        <path d="M 103.9092178344727 145.5 L 45.09088897705078 145.5 L 3.500000476837158 103.9092178344727 L 3.50002121925354 45.09086990356445 L 45.09091186523438 3.500000476837158 L 103.9092178344727 3.50002121925354 L 145.5 45.09088897705078 L 145.5 103.9092178344727 L 103.9092178344727 145.5 Z" stroke="none"/>
        <path d="M 46.54063415527344 7 L 7 46.54060363769531 L 7 102.4594421386719 L 46.54062652587891 142 L 102.45947265625 142 L 142 102.45947265625 L 142 46.54062652587891 L 102.4594421386719 7 L 46.54063415527344 7 M 43.64115905761719 0 L 105.3589477539063 0 L 149 43.64112854003906 L 149 105.3589477539063 L 105.3589477539063 149 L 43.64112854003906 149 L 0 105.3589477539063 L 0 43.64112854003906 L 43.64115905761719 0 Z" stroke="none" fill="#ff6565"/>
      </g>
    </g>
    <text id="Stop_" data-name="Stop!" transform="translate(24.5 88)" fill="#ff6d6d" font-size="39" font-family="MikadoUltra, Mikado" letter-spacing="0.02em"><tspan x="0" y="0">Stop!</tspan></text>
  </g>
</svg>
