<svg id="stop-sign-hand" xmlns="http://www.w3.org/2000/svg" width="265" height="265" viewBox="0 0 265 265">
  <g id="Polygon_2" data-name="Polygon 2" fill="#ff4646">
    <path d="M 185.3122253417969 260 L 79.68776702880859 260 L 5 185.3121948242188 L 5.000038623809814 79.68772888183594 L 79.68784332275391 5 L 185.3122253417969 5.000038623809814 L 260.0000305175781 79.68776702880859 L 259.9999694824219 185.3122253417969 L 185.3122253417969 260 Z" stroke="none"/>
    <path d="M 81.75886535644531 10 L 10.00004577636719 81.75877380371094 L 10 183.2411804199219 L 81.75881958007813 255 L 183.2410888671875 255 L 254.9999542236328 183.2412261962891 L 255 81.75881958007813 L 183.2412261962891 10.00004577636719 L 81.75886535644531 10 M 79.68782043457031 0 L 185.3122253417969 3.0517578125e-05 C 186.6382751464844 3.0517578125e-05 187.9100341796875 0.526763916015625 188.8477172851563 1.464447021484375 L 263.5355529785156 76.1522216796875 C 264.4731750488281 77.08990478515625 265 78.36167907714844 265 79.68777465820313 L 264.9999694824219 185.3122253417969 C 264.9999694824219 186.6383209228516 264.4731750488281 187.9100952148438 263.5354919433594 188.8477783203125 L 188.8477172851563 263.5354919433594 C 187.9100341796875 264.4731750488281 186.6382751464844 265 185.3122253417969 265 L 79.68777465820313 265 C 78.36167907714844 265 77.08990478515625 264.4731750488281 76.1522216796875 263.5354919433594 L 1.464447021484375 188.8477172851563 C 0.526763916015625 187.9100341796875 0 186.6382751464844 0 185.3121795654297 L 3.0517578125e-05 79.68772888183594 C 3.0517578125e-05 78.36167907714844 0.526824951171875 77.08990478515625 1.464447021484375 76.1522216796875 L 76.15226745605469 1.464447021484375 C 77.08995056152344 0.526763916015625 78.36172485351563 0 79.68782043457031 0 Z" stroke="none" fill="#fff"/>
  </g>
  <path id="hand-paper-solid" d="M120.159,37.627a11.943,11.943,0,0,0-11.987,11.988V75.25H105.82v-51.8A11.943,11.943,0,0,0,93.833,11.466,11.758,11.758,0,0,0,82.3,23.222V75.25H79.953V11.99A11.943,11.943,0,0,0,67.966,0,11.758,11.758,0,0,0,56.437,11.758V75.25H54.086v-51.5A11.943,11.943,0,0,0,42.1,11.76,11.758,11.758,0,0,0,30.57,23.515V92.884l-9.3-12.792A11.758,11.758,0,1,0,2.25,93.923l36.92,50.766A14.109,14.109,0,0,0,50.58,150.5h58.081a14.11,14.11,0,0,0,13.734-10.878l7.792-33.116a56.441,56.441,0,0,0,1.5-12.926v-44.2A11.757,11.757,0,0,0,120.159,37.627Z" transform="translate(61.5 53)" fill="#fff"/>
</svg>
